<svg xmlns="http://www.w3.org/2000/svg" width="24.294" height="24.308" viewBox="0 0 24.294 24.308">
  <path id="Path_528" data-name="Path 528" d="M-6897.441,24.308a2.083,2.083,0,0,1-1.493-.7l-3.448-3.9a2.083,2.083,0,0,1-.41-2.013l-1.3-1.32a8.764,8.764,0,0,1-5.278,1.892l-4.377,4.731a2,2,0,0,1-1.444.65h-.043a2.023,2.023,0,0,1-1.878-1.285,2.024,2.024,0,0,1,.507-2.219l3.053-2.823a8.839,8.839,0,0,1-4.265-11l-.571-.562a2.077,2.077,0,0,1-.61-1.471,2.077,2.077,0,0,1,.61-1.472l2.214-2.2A2.08,2.08,0,0,1-6914.7,0a2.078,2.078,0,0,1,1.471.61l.562.561a8.782,8.782,0,0,1,9.358,2.013l.072.083.158-.187a2.072,2.072,0,0,1,1.5-.749,2.08,2.08,0,0,1,1.568.609l3.457,3.457a2.079,2.079,0,0,1,.623,1.562,2.086,2.086,0,0,1-.737,1.511l-5.2,4.31a8.618,8.618,0,0,1-.753,1.118l1.327,1.342a2.08,2.08,0,0,1,2.007.411l3.9,3.446a2.076,2.076,0,0,1,.678,1.491,2.073,2.073,0,0,1-.61,1.52l-.592.593a2.08,2.08,0,0,1-1.471.609Zm-3.936-6.858-.135.135a1.04,1.04,0,0,0-.047,1.425l3.448,3.9a1.032,1.032,0,0,0,.716.354,1.043,1.043,0,0,0,.77-.3l.593-.592a1.043,1.043,0,0,0,.324-.766,1.044,1.044,0,0,0-.34-.758l-3.9-3.446a1.037,1.037,0,0,0-.687-.26A1.037,1.037,0,0,0-6901.377,17.45Zm-.9-13.7-.52.64-4.81,5.77a1.041,1.041,0,0,0,.063,1.4l.464.463a.524.524,0,0,1,.159.374.526.526,0,0,1-.159.375l-5.159,4.778-3.639,3.348a.974.974,0,0,0-.313.7.976.976,0,0,0,.287.712.926.926,0,0,0,.713.286.974.974,0,0,0,.7-.312l8.111-8.8a.519.519,0,0,1,.375-.159.515.515,0,0,1,.374.159l.463.462a1.041,1.041,0,0,0,1.4.062l6.425-5.3a1.036,1.036,0,0,0,.387-.765,1.047,1.047,0,0,0-.319-.8l-3.462-3.463a1.041,1.041,0,0,0-.739-.306h-.051A1.039,1.039,0,0,0-6902.276,3.755Zm-6.037,13.373a7.736,7.736,0,0,0,3.9-1.836h-.042a2.078,2.078,0,0,1-1.1-.338,2.21,2.21,0,0,1-.329-.265l-.077-.078Zm-4.425-.588,4.519-4.16-.083-.083a2.079,2.079,0,0,1-.125-2.807l4.55-5.428-.14-.14a7.757,7.757,0,0,0-8.553-1.669c-.187.079-.375.172-.556.265l-.12.057a7.855,7.855,0,0,0-3.463,3.817,7.753,7.753,0,0,0,1.664,8.558l-.021-.005A7.749,7.749,0,0,0-6912.738,16.54Zm-2.7-15.192-2.2,2.2a1.04,1.04,0,0,0,0,1.466l.307.249V5.227l.088-.151a5.49,5.49,0,0,1,.306-.52l.141-.2q.166-.238.348-.468l.12-.145a5.106,5.106,0,0,1,.52-.592c.187-.177.385-.349.588-.52l.15-.125c.152-.118.306-.233.463-.344l.208-.14c.176-.109.348-.208.52-.307l.15-.088h.042l-.275-.275a1.041,1.041,0,0,0-.736-.305A1.043,1.043,0,0,0-6915.441,1.348Zm18.239,21.228a.613.613,0,0,1-.172-.109l-.062-.083a.288.288,0,0,1-.046-.088.291.291,0,0,1-.031-.1.562.562,0,0,1,0-.1.545.545,0,0,1,.15-.368.587.587,0,0,1,.172-.109.476.476,0,0,1,.394,0,.459.459,0,0,1,.172.109.544.544,0,0,1,.151.368.842.842,0,0,1,0,.1.317.317,0,0,1-.032.1.28.28,0,0,1-.047.088.484.484,0,0,1-.084.083.475.475,0,0,1-.171.109.49.49,0,0,1-.2.041A.5.5,0,0,1-6897.2,22.576Zm-18.187-.52a.582.582,0,0,1-.171-.109.608.608,0,0,1-.109-.172.491.491,0,0,1,0-.395.5.5,0,0,1,.109-.172.582.582,0,0,1,.171-.109.479.479,0,0,1,.4,0,.519.519,0,0,1,.172.109.491.491,0,0,1,.109.172.487.487,0,0,1,0,.395.619.619,0,0,1-.109.172.467.467,0,0,1-.172.109.486.486,0,0,1-.2.041A.5.5,0,0,1-6915.389,22.056Zm11.558-9.706a.521.521,0,0,1,.073-.733l4.044-3.307a.522.522,0,0,1,.733.073.521.521,0,0,1-.073.733l-4.044,3.306a.52.52,0,0,1-.331.118A.52.52,0,0,1-6903.831,12.35Zm-1.067-1.066a.517.517,0,0,1-.159-.367.514.514,0,0,1,.149-.371l3.675-3.677a.529.529,0,0,1,.748,0,.53.53,0,0,1,0,.749l-3.681,3.665a.515.515,0,0,1-.365.151A.522.522,0,0,1-6904.9,11.284Zm-11.878-1.024a7.263,7.263,0,0,1,.519-3.681.519.519,0,0,1,.681-.26.52.52,0,0,1,.3.665,6.227,6.227,0,0,0-.458,3.156.52.52,0,0,1-.108.384.528.528,0,0,1-.349.194h-.066A.52.52,0,0,1-6916.776,10.26Zm11.14.068a.521.521,0,0,1-.466-.3.519.519,0,0,1,.066-.55l3.308-4.045a.52.52,0,0,1,.732-.072.52.52,0,0,1,.074.732l-3.307,4.045a.524.524,0,0,1-.4.192Zm5.518-3.822-1.113-1.1a.523.523,0,0,1,0-.739.523.523,0,0,1,.739.005l1.1,1.1a.521.521,0,0,1-.027.706.518.518,0,0,1-.367.152A.517.517,0,0,1-6900.119,6.505Z" transform="translate(6918.999)" fill="#f72585"/>
</svg>
