<svg xmlns="http://www.w3.org/2000/svg" width="30" height="30" viewBox="0 0 30 30">
  <path id="Path_558" data-name="Path 558" d="M24.311,30a1.551,1.551,0,0,1-1.552-1.552V26.38H13.449v2.069A1.551,1.551,0,0,1,11.9,30H10.345a1.551,1.551,0,0,1-1.552-1.552V26.38a1.552,1.552,0,0,1-1.552-1.552V20.69A2.586,2.586,0,0,1,9.378,18.15l.254-1.081H8.276a2.069,2.069,0,1,1,0-4.138h.517a2.067,2.067,0,0,1,1.608.807l.46-1.945a2.483,2.483,0,0,1,2.416-1.965h4.309a.517.517,0,0,1,0,1.034H13.278A1.464,1.464,0,0,0,11.9,12.031l-1.035,4.4L10.448,18.1H25.759l-.414-1.676-1.034-4.4a1.464,1.464,0,0,0-1.381-1.169h-.688a.517.517,0,1,1,0-1.034h.688a2.482,2.482,0,0,1,2.415,1.965l.44,1.945a2.069,2.069,0,0,1,1.629-.807h.517a2.069,2.069,0,0,1,0,4.138H26.576l.253,1.081a2.586,2.586,0,0,1,2.136,2.539v4.138a1.552,1.552,0,0,1-1.552,1.552v2.069A1.551,1.551,0,0,1,25.863,30Zm-.517-1.552a.517.517,0,0,0,.517.517h1.552a.517.517,0,0,0,.517-.517V26.38H23.794Zm-13.966,0a.517.517,0,0,0,.517.517H11.9a.517.517,0,0,0,.517-.517V26.38H9.828ZM20.69,21.208a1.552,1.552,0,0,1,1.552,1.552v2.586h5.172a.517.517,0,0,0,.517-.517V20.69a1.551,1.551,0,0,0-1.552-1.552H9.828A1.551,1.551,0,0,0,8.276,20.69v4.138a.517.517,0,0,0,.517.517h5.172V22.759a1.551,1.551,0,0,1,1.552-1.552ZM15,22.759v2.586h6.207V22.759a.517.517,0,0,0-.518-.517H15.517A.517.517,0,0,0,15,22.759ZM26.38,15v1.034h1.552a1.034,1.034,0,1,0,0-2.069h-.517A1.035,1.035,0,0,0,26.38,15ZM7.242,15a1.034,1.034,0,0,0,1.034,1.034H9.828V15a1.035,1.035,0,0,0-1.034-1.034H8.276A1.034,1.034,0,0,0,7.242,15ZM2.586,30a.517.517,0,0,1-.518-.517V28.449A1.552,1.552,0,0,1,3.621,26.9h.517V9.311h-2.7A1.443,1.443,0,0,1,0,7.873V1.438A1.443,1.443,0,0,1,1.438,0H7.873A1.443,1.443,0,0,1,9.311,1.438V7.873A1.443,1.443,0,0,1,7.873,9.311h-2.7V26.9H5.69a1.552,1.552,0,0,1,1.552,1.552v1.034A.517.517,0,0,1,6.724,30ZM3.1,28.449v.517h3.1v-.517a.517.517,0,0,0-.517-.517H3.621A.517.517,0,0,0,3.1,28.449ZM1.034,1.438V7.873a.4.4,0,0,0,.4.4H7.873a.4.4,0,0,0,.4-.4V1.438a.4.4,0,0,0-.4-.4H1.438A.4.4,0,0,0,1.034,1.438Zm22.242,20.8a1.552,1.552,0,1,1,1.552,1.552A1.552,1.552,0,0,1,23.276,22.242Zm1.034,0a.517.517,0,1,0,.517-.517A.518.518,0,0,0,24.311,22.242Zm-14.483,0a1.552,1.552,0,1,1,1.552,1.552A1.552,1.552,0,0,1,9.828,22.242Zm1.034,0a.517.517,0,1,0,.517-.517A.518.518,0,0,0,10.862,22.242Zm8.793-11.38a.517.517,0,1,1,0-1.034h.517a.517.517,0,0,1,0,1.034ZM3.1,6.724V2.586a.517.517,0,0,1,.517-.518H4.914a1.81,1.81,0,0,1,0,3.621H4.138V6.724a.517.517,0,1,1-1.034,0ZM4.138,4.655h.776a.776.776,0,0,0,0-1.552H4.138Z" fill="#f72585"/>
</svg>
