<svg xmlns="http://www.w3.org/2000/svg" width="21.309" height="26.33" viewBox="0 0 21.309 26.33">
  <path id="Path_539" data-name="Path 539" d="M19.848,25.6V6.783A5.312,5.312,0,0,0,9.23,6.535a8.444,8.444,0,0,1,7.747,8.208.657.657,0,0,1-.731.751H.732A.652.652,0,0,1,0,14.743,8.452,8.452,0,0,1,7.774,6.529a6.77,6.77,0,0,1,13.536.249V25.6a.731.731,0,0,1-1.461,0ZM1.524,14.033H15.454a7.03,7.03,0,0,0-13.929,0ZM9.65,25.594v-1.3a.731.731,0,1,1,1.461,0v1.3a.731.731,0,0,1-1.461,0Zm-3.783,0v-1.3a.731.731,0,1,1,1.461,0v1.3a.731.731,0,0,1-1.461,0Zm5.674-3.726v-1.3a.731.731,0,1,1,1.461,0v1.3a.731.731,0,0,1-1.461,0Zm-3.783,0v-1.3a.731.731,0,1,1,1.461,0v1.3a.731.731,0,1,1-1.461,0Zm-3.783,0v-1.3a.731.731,0,1,1,1.461,0v1.3a.731.731,0,1,1-1.461,0Zm9.452-3.721v-1.3a.731.731,0,0,1,1.461,0v1.3a.731.731,0,1,1-1.461,0Zm-3.778,0v-1.3a.731.731,0,0,1,1.461,0v1.3a.731.731,0,1,1-1.461,0Zm-3.783,0v-1.3a.731.731,0,0,1,1.461,0v1.3a.731.731,0,1,1-1.461,0Zm-3.783,0v-1.3a.731.731,0,0,1,1.461,0v1.3a.731.731,0,0,1-1.461,0Z" transform="translate(0)" fill="#f72585"/>
</svg>
