<svg xmlns="http://www.w3.org/2000/svg" width="18.716" height="26.057" viewBox="0 0 18.716 26.057">
  <path id="Path_548" data-name="Path 548" d="M14.329,26.053H4.524a.55.55,0,1,1,0-1.093H5.573V21.408A8.749,8.749,0,0,1,.688,14.286a.484.484,0,0,1,0-.173.506.506,0,0,1,0-.109.536.536,0,0,1,.535-.442H17.586a.551.551,0,0,1,.55.442.69.69,0,0,1-.036.282,8.686,8.686,0,0,1-4.864,7.107v3.567h1.093a.55.55,0,1,1,0,1.093ZM6.68,24.961h5.464V21.841a8.555,8.555,0,0,1-2.743.442,8.676,8.676,0,0,1-2.721-.434Zm-.311-4.4a7.633,7.633,0,0,0,10.588-5.906H1.867A7.693,7.693,0,0,0,6.369,20.561Zm11.8-8.069H.55A.543.543,0,0,1,0,11.949a.55.55,0,0,1,.55-.55H2.96C1.426,7.932,1.469,3.076,1.469,2.714V.543A.55.55,0,0,1,2.019,0h14.75a.543.543,0,0,1,.55.558V2.728c0,.362.044,5.232-1.491,8.648h2.338a.557.557,0,0,1,.007,1.114Zm-14-1.114H14.619c1.361-2.627,1.6-6.651,1.6-8.1H2.57C2.6,4.719,2.844,8.749,4.169,11.377ZM2.562,2.171H16.225V1.093H2.562ZM4.634,6.462a1.093,1.093,0,0,1,.381-2.119,1.078,1.078,0,0,1,.948.572h3.43a.543.543,0,0,1,.536.521.536.536,0,0,1-.543.543H5.956a1.093,1.093,0,0,1-1.322.484Z" transform="translate(0 0)" fill="#f72585"/>
</svg>
