<svg xmlns="http://www.w3.org/2000/svg" width="30.826" height="18.723" viewBox="0 0 30.826 18.723">
  <path id="Path_551" data-name="Path 551" d="M41.043,8.765H34.5V8.7a1.647,1.647,0,0,0-1.645-1.645h-.869V5.679h3.282a2.06,2.06,0,1,0,0-4.12H31.983V.722A.722.722,0,0,0,31.261,0H25.947a.722.722,0,0,0-.722.722v.834H21.943a2.06,2.06,0,0,0,0,4.12h3.281V7.055h-.876A1.647,1.647,0,0,0,22.7,8.7v.064H18.356a7.424,7.424,0,0,0-7.412,7.412V18a.722.722,0,0,0,.722.722h4.6A.722.722,0,0,0,16.99,18V16.43A1.621,1.621,0,0,1,18.6,14.811h4.1v.1a1.647,1.647,0,0,0,1.649,1.65h8.51A1.647,1.647,0,0,0,34.5,14.912v-.053h6.546a.722.722,0,0,0,.722-.722V9.487a.722.722,0,0,0-.727-.722Zm-15.1-4.529h-4a.616.616,0,0,1,0-1.232h4a.722.722,0,0,0,.722-.722V1.444h3.872v.834A.722.722,0,0,0,31.261,3h4a.616.616,0,0,1,0,1.232H31.259a.722.722,0,0,0-.722.722v2.1h-3.87v-2.1A.722.722,0,0,0,25.946,4.236ZM18.6,13.367A3.066,3.066,0,0,0,15.54,16.43v.852H12.385v-1.1a5.978,5.978,0,0,1,5.968-5.968H22.7V13.37Zm14.452,1.54a.2.2,0,0,1-.2.2h-8.51a.2.2,0,0,1-.2-.2V8.7a.2.2,0,0,1,.2-.2h8.51a.2.2,0,0,1,.2.2v6.208Zm7.263-1.5H34.5v-3.2h5.819Z" transform="translate(-10.944)" fill="#f72585"/>
</svg>
