<svg xmlns="http://www.w3.org/2000/svg" width="29.681" height="22.218" viewBox="0 0 29.681 22.218">
  <path id="Path_544" data-name="Path 544" d="M11.121,18.5a3.72,3.72,0,1,1,3.72,3.72A3.724,3.724,0,0,1,11.121,18.5Zm1.539,0a2.181,2.181,0,1,0,2.181-2.181A2.183,2.183,0,0,0,12.66,18.5ZM6.982,14.29a.963.963,0,0,1-.02-1.361,10.992,10.992,0,0,1,15.65-.11.962.962,0,0,1-1.36,1.362,9.067,9.067,0,0,0-12.909.089.962.962,0,0,1-1.361.021ZM3.726,10.837a.962.962,0,0,1,0-1.361,15.719,15.719,0,0,1,22.23,0,.962.962,0,0,1-1.36,1.361,13.794,13.794,0,0,0-19.508,0,.963.963,0,0,1-1.361,0ZM.282,7.391a.962.962,0,0,1,0-1.361,20.589,20.589,0,0,1,29.117,0,.962.962,0,0,1-1.36,1.361,18.665,18.665,0,0,0-26.4,0,.962.962,0,0,1-1.36,0Z" fill="#f72585"/>
</svg>
